<?xml version="1.0" encoding="UTF-8" standalone="no"?>
<!-- Created with Inkscape (http://www.inkscape.org/) -->

<svg
   xmlns:dc="http://purl.org/dc/elements/1.1/"
   xmlns:cc="http://creativecommons.org/ns#"
   xmlns:rdf="http://www.w3.org/1999/02/22-rdf-syntax-ns#"
   xmlns:svg="http://www.w3.org/2000/svg"
   xmlns="http://www.w3.org/2000/svg"
   xmlns:sodipodi="http://sodipodi.sourceforge.net/DTD/sodipodi-0.dtd"
   xmlns:inkscape="http://www.inkscape.org/namespaces/inkscape"
   width="215.78583mm"
   height="241.51422mm"
   viewBox="0 0 215.78583 241.51422"
   version="1.1"
   id="svg8"
   inkscape:version="0.92.5 (2060ec1f9f, 2020-04-08)"
   sodipodi:docname="bizzbuzzcomics-logo__dark.svg">
  <defs
     id="defs2" />
  <sodipodi:namedview
     id="base"
     pagecolor="#ffffff"
     bordercolor="#666666"
     borderopacity="1.0"
     inkscape:pageopacity="0.0"
     inkscape:pageshadow="2"
     inkscape:zoom="0.35"
     inkscape:cx="-486.33906"
     inkscape:cy="433.58898"
     inkscape:document-units="mm"
     inkscape:current-layer="layer1"
     showgrid="false"
     inkscape:window-width="1920"
     inkscape:window-height="1009"
     inkscape:window-x="-8"
     inkscape:window-y="471"
     inkscape:window-maximized="1" />
  <metadata
     id="metadata5">
    <rdf:RDF>
      <cc:Work
         rdf:about="">
        <dc:format>image/svg+xml</dc:format>
        <dc:type
           rdf:resource="http://purl.org/dc/dcmitype/StillImage" />
        <dc:title></dc:title>
      </cc:Work>
    </rdf:RDF>
  </metadata>
  <g
     inkscape:label="Layer 1"
     inkscape:groupmode="layer"
     id="layer1"
     transform="translate(11.173982,-22.039523)">
    <path
       style="fill:#000000;stroke-width:0.26458332"
       d="m 106.9778,263.04993 c -1.45466,-0.5814 -2.31719,-1.30308 -3.13081,-2.61955 -0.55093,-0.89142 -0.5655,-0.89657 -2.08639,-0.73761 -1.39772,0.14609 -1.60793,0.0971 -2.405238,-0.5604 -1.12048,-0.92402 -1.41862,-1.28449 -2.1304,-2.57582 -0.54138,-0.98215 -0.58294,-1.40112 -0.57746,-5.82083 0.006,-4.49136 0.048,-4.89054 0.74477,-7.01146 0.40638,-1.23693 1.09344,-2.88607 1.52681,-3.66476 0.43337,-0.7787 0.75037,-1.45149 0.70445,-1.4951 -0.0831,-0.0789 -2.83182,-0.27107 -15.42933,-1.07859 -12.14421,-0.77846 -17.99416,-2.37683 -29.48777,-8.05686 -8.10537,-4.0056 -13.06383,-6.8343 -19.42873,-11.08371 -7.72359,-5.15652 -11.57314,-8.27477 -16.61014,-13.45474 -3.79403,-3.90172 -4.47798,-4.76255 -8.11354,-10.21188 -2.1836401,-3.27304 -4.4764401,-6.82244 -5.0951201,-7.88757 -0.61869,-1.06512 -1.51028,-2.41283 -1.98132,-2.99492 -2.41864,-2.98877 -5.87807,-9.55241 -7.25146,-13.75833 -0.47518,-1.45521 -1.26442,-3.59833 -1.75386,-4.7625 -1.07346,-2.5533 -2.94983,-9.47372 -4.23253,-15.61042 -1.1175699,-5.34668 -1.3987199,-9.79509 -1.4130299,-22.35729 -0.0105,-9.24215 0.069,-9.94742 2.5020699,-22.19478 1.63378,-8.223872 2.15151,-10.037551 4.15372,-14.550922 0.75811,-1.708931 1.40795,-3.601123 1.47446,-4.293323 0.0654,-0.680728 -0.0198,-5.606815 -0.18943,-10.946863 -0.22853,-7.195577 -0.23127,-9.802069 -0.0106,-10.067978 0.16378,-0.197342 0.91369,-0.560409 1.66648,-0.806821 2.26415,-0.741127 19.5440801,-8.289234 20.6832801,-9.034738 0.58208,-0.38092 2.72521,-2.310974 4.7625,-4.289004 6.65154,-6.458061 8.82049,-8.104455 18.4476,-14.003077 6.16935,-3.780017 8.24748,-4.853538 12.95616,-6.692897 5.69029,-2.222806 19.08733,-5.95814 24.95249,-6.9572 7.60155,-1.294833 11.09769,-1.536423 20.181128,-1.394553 8.1063,0.126608 8.52077,0.158605 12.09803,0.933947 12.63854,2.7393 23.58957,6.627384 35.10495,12.463765 4.97474,2.52136 12.2875,7.307776 17.23731,11.282317 4.00962,3.219594 11.28255,9.89155 13.84897,12.704608 2.62278,2.874828 8.39806,10.697049 9.76252,13.222674 0.54687,1.012259 1.64948,2.912031 2.45024,4.221718 2.42638,3.968491 4.39182,8.669039 7.16833,17.14377 0.86793,2.649157 1.89235,5.696586 2.27651,6.772067 0.85249,2.38665 2.83554,10.83417 3.39184,14.44875 0.91818,5.96592 1.08798,12.04911 0.59822,21.43125 -0.52376,10.03338 -0.63428,11.0642 -1.74462,16.27188 -0.93367,4.37901 -1.92025,7.61194 -3.31043,10.84791 -0.53139,1.23693 -1.62614,3.97537 -2.43279,6.08542 -2.27363,5.94744 -6.15503,13.33928 -9.72513,18.52083 -0.75198,1.09141 -1.82662,2.81782 -2.38808,3.83646 -1.63155,2.96007 -3.88903,6.19145 -6.68125,9.56359 -1.42836,1.72503 -2.81044,3.47123 -3.07127,3.88044 -0.26084,0.40922 -0.61549,0.69413 -0.78812,0.63314 -0.17263,-0.061 -1.26636,0.73996 -2.43053,1.77989 -10.76541,9.61649 -14.54686,12.39869 -22.48958,16.54665 -2.0373,1.06394 -4.35901,2.31936 -5.15938,2.78982 -0.80036,0.47046 -2.46724,1.24618 -3.70417,1.72382 -1.23692,0.47764 -3.32052,1.31235 -4.6302,1.85491 -3.34981,1.3877 -5.08496,1.96436 -8.7974,2.92372 -2.50848,0.64824 -3.24115,0.93694 -3.24115,1.27715 0,0.24177 0.35143,1.56594 0.78095,2.9426 0.42952,1.37666 0.86059,3.28629 0.95793,4.24363 0.16166,1.58979 0.0836,2.01387 -0.90072,4.89479 -3.02084,8.84127 -6.05608,13.6734 -9.72209,15.47771 -1.81042,0.89103 -5.96093,1.02536 -7.88767,0.25527 z m 4.98303,-1.20026 c 3.6201,-0.6141 6.8725,-4.26824 9.53884,-10.71707 1.10217,-2.66571 2.51432,-6.91883 2.51432,-7.57263 0,-0.89079 -0.98419,-5.08062 -2.16676,-9.22424 -2.14039,-7.49974 -2.10982,-7.32734 -2.253,-12.70418 -0.21917,-8.23042 0.14785,-9.22264 6.41047,-17.33021 4.74469,-6.14248 5.46128,-7.24191 7.92618,-12.16089 2.71093,-5.40995 3.74399,-6.73588 3.53421,-4.53618 -0.0936,0.98201 -0.0737,1.01284 0.42796,0.66146 0.58666,-0.41092 1.62464,-0.49069 1.84048,-0.14146 0.0772,0.12491 -0.87864,1.20596 -2.12407,2.40233 -3.55856,3.4184 -2.34911,3.1633 2.77868,-0.58609 8.06254,-5.89525 12.28098,-12.00775 13.25785,-19.21055 0.16547,-1.22005 0.20308,-2.31603 0.0836,-2.43553 -0.38611,-0.38612 -6.60309,-3.12369 -8.66804,-3.81687 -2.19111,-0.73554 -4.94954,-1.17043 -7.4215,-1.17006 -1.44004,2.1e-4 -1.66429,0.0793 -2.41416,0.85172 -0.45466,0.46833 -1.3774,1.60874 -2.05052,2.53425 -1.20645,1.65882 -1.22386,1.71204 -1.22386,3.74201 0,1.57549 -0.0921,2.0946 -0.39222,2.20976 -0.38575,0.14802 -2.09854,-0.3421 -3.22414,-0.92261 -0.67327,-0.34723 -4.58573,-0.0646 -4.58573,0.3313 0,0.13815 0.54702,1.21522 1.21559,2.39348 0.66857,1.17827 1.50085,2.90018 1.84951,3.82648 0.76792,2.04018 1.24213,5.77643 1.12353,8.85224 -0.1009,2.617 0.25128,2.98129 1.15038,1.18997 0.29825,-0.59421 0.83239,-1.46733 1.18697,-1.94028 0.64589,-0.86147 1.41379,-1.14988 1.40894,-0.52916 -0.005,0.69002 -1.30725,3.04673 -2.66736,4.82864 -3.22493,4.22506 -6.35579,8.53231 -8.97172,12.34278 -1.52797,2.2257 -3.68495,5.24555 -4.79329,6.71079 -3.04265,4.02243 -3.49618,5.22312 -2.29159,6.06685 1.03428,0.72444 1.49183,0.52774 1.82194,-0.78325 0.16552,-0.65732 0.40012,-1.25642 0.52135,-1.33135 0.42642,-0.26353 1.10443,1.16448 0.91599,1.92923 -0.24414,0.99083 -1.69554,2.44933 -2.4374,2.44933 -0.51085,0 -0.58437,0.11113 -0.48132,0.7276 0.0669,0.40018 0.30323,3.64464 0.52518,7.2099 0.22194,3.56526 0.45712,6.83948 0.5226,7.27604 0.1028,0.68537 -0.0245,0.8931 -0.93219,1.52135 -0.57819,0.40019 -1.16873,0.72761 -1.31231,0.72761 -0.14847,0 -0.26105,-0.85575 -0.26105,-1.98438 0,-1.88225 -0.0306,-1.98424 -0.59531,-1.98179 -1.69608,0.007 -5.36101,2.59689 -7.71584,5.45176 -3.27138,3.96605 -5.420368,10.2285 -5.442038,15.85881 -0.01,2.54633 2.051638,5.34062 3.760928,5.09799 0.6745,-0.0957 0.7011,-0.42198 0.35214,-4.31843 -0.37374,-4.17323 1.20784,-9.19376 3.79928,-12.06034 0.92976,-1.02847 1.05794,-1.09762 1.06749,-0.57582 0.006,0.32616 -0.65047,2.01693 -1.45875,3.75727 -1.88356,4.05554 -2.39168,6.3896 -2.00561,9.21281 0.50766,3.71244 1.41628,5.86459 2.94605,6.97803 0.73412,0.53433 3.34945,1.29742 3.96875,1.15798 0.21828,-0.0491 0.86655,-0.16903 1.44059,-0.2664 z m -8.0036,-27.79706 c 1.58972,-1.53587 3.15119,-2.90688 3.46993,-3.04668 0.47338,-0.20763 0.40992,-0.23092 -0.34651,-0.12713 -2.59322,0.35583 -14.554518,0.71014 -19.329638,0.57258 -5.98054,-0.1723 -9.37031,-0.64405 -15.38635,-2.14133 -6.48922,-1.61504 -18.65678,-6.89256 -25.56318,-11.08769 -1.35724,-0.82443 -4.57193,-2.70238 -7.14375,-4.17322 -8.37707,-4.79092 -10.71049,-6.71026 -17.32822,-14.2532 -3.46185,-3.94585 -6.08921,-7.30375 -8.6959,-11.1138 -0.94912,-1.38728 -2.4389,-3.5304 -3.31062,-4.7625 -0.8717201,-1.23209 -2.2476601,-3.37127 -3.0576401,-4.75371 -1.48332,-2.53167 -3.63678,-7.13681 -3.63678,-7.77721 0,-0.18983 1.33946,-0.91748 2.97657,-1.617 7.0084301,-2.99465 16.6533701,-7.00996 16.8382101,-7.00996 0.1102,0 1.06731,1.59985 2.12691,3.55523 2.39367,4.41727 4.03403,6.89256 7.25104,10.94181 2.44052,3.07187 7.19259,8.25713 7.56732,8.25713 0.21429,0 1.07537,-2.61273 1.07537,-3.26292 0,-0.24106 -0.73024,-1.42122 -1.62276,-2.62258 -6.26601,-8.43433 -12.48609,-19.63579 -14.7761,-26.60967 -1.00979,-3.07514 -1.98542,-7.33056 -3.22616,-14.0715 -0.53968,-2.93212 -0.60299,-4.02763 -0.55806,-9.65729 0.0516,-6.46691 0.32332,-10.29501 1.03285,-14.55209 0.4819,-2.89132 1.84617,-8.69999 2.19754,-9.35654 0.14013,-0.26184 1.00549,-0.87104 1.92301,-1.35378 0.91752,-0.48274 4.58525,-2.56841 8.15051,-4.634812 3.56526,-2.066406 7.10725,-4.102539 7.87109,-4.524737 l 1.38879,-0.767631 -0.004,-1.852083 c -0.002,-1.018646 -0.12615,-5.185833 -0.27557,-9.260417 l -0.27169,-7.408333 1.84057,-1.719792 c 4.50317,-4.207669 11.50799,-8.882626 18.42258,-12.295056 7.84974,-3.873947 14.33999,-5.61172 24.20937,-6.482085 11.59492,-1.022541 26.670088,0.957821 37.306248,4.900766 l 3.30729,1.22605 2.11667,-0.289758 c 1.16417,-0.159367 2.50362,-0.289608 2.97656,-0.289423 1.77052,7.94e-4 0.50851,-1.415576 -2.50371,-2.809774 -8.26235,-3.824198 -13.19157,-5.360218 -20.63602,-6.430505 -4.62982,-0.665629 -8.07158,-1.004218 -12.248288,-1.20495 -4.07387,-0.195786 -5.55625,-0.386665 -5.55625,-0.715449 0,-0.139158 0.34354,-0.752327 0.76341,-1.362595 0.41988,-0.610269 2.88128,-4.620315 5.46978,-8.911214 5.430528,-9.002059 6.360778,-10.483001 6.727118,-10.709412 0.37201,-0.229914 6.11654,0.757491 11.77823,2.024514 17.99875,4.027919 35.23871,13.494125 51.43096,28.239965 7.17839,6.537161 17.70012,21.872525 21.30879,31.057454 5.45981,13.896537 7.7607,22.267497 8.59965,31.286767 0.54398,5.84812 0.54888,5.41679 -0.0616,5.41679 -0.30017,0 -0.79156,-0.22921 -1.09198,-0.50937 -0.78487,-0.73193 -3.15955,-1.87188 -3.8994,-1.87188 -1.03734,0 -4.25153,1.7164 -5.26814,2.81322 -0.52163,0.56278 -1.40796,1.61855 -1.96964,2.34616 -2.60727,3.3775 -3.70342,4.16476 -5.84189,4.19567 -1.08452,0.0157 -1.58522,-0.13264 -2.43443,-0.72115 -1.69558,-1.17503 -1.8725,-1.92528 -2.30929,-9.79258 -0.21104,-3.80111 -0.55843,-7.64146 -0.77199,-8.5341 -0.87201,-3.64494 -6.0456,-17.772239 -7.95528,-21.723169 -3.81825,-7.899548 -9.86593,-15.693173 -17.81638,-22.959907 l -1.15355,-1.054354 0.53394,1.066297 c 0.29366,0.586462 0.72589,1.717556 0.96049,2.513542 1.19677,4.060473 2.13835,5.932146 4.78768,9.517036 6.19539,8.383167 10.27987,15.621522 12.39189,21.960415 4.1019,12.31125 4.66748,15.37894 4.66748,25.31636 0,6.26233 -0.36019,10.91422 -1.09228,14.10656 -1.15326,5.02895 -4.02833,13.56819 -6.19123,18.38854 -0.68172,1.51931 -0.70469,1.71326 -0.53478,4.51489 0.16022,2.64159 0.12832,2.98818 -0.32673,3.55014 -0.54384,0.67162 -1.73599,0.78786 -3.03093,0.29552 -0.64884,-0.24669 -0.741,-0.15357 -2.15083,2.17315 -0.81011,1.33699 -2.18911,3.32386 -3.06444,4.41526 -0.87533,1.09141 -1.59352,2.12729 -1.59598,2.30196 -0.002,0.17467 -0.17272,0.4128 -0.37838,0.52917 -0.20565,0.11637 -1.26691,1.40991 -2.35835,2.87453 -3.20558,4.30163 -7.63164,8.05366 -14.52621,12.31408 -2.21365,1.3679 -2.3747,1.5341 -3.88009,4.00409 -0.98657,1.61873 -1.38865,2.47958 -1.08132,2.3151 0.2691,-0.14401 0.74873,-0.26184 1.06586,-0.26184 0.64457,0 0.65556,-0.24885 -0.16531,3.74359 -0.43652,2.12311 -0.44065,2.43986 -0.0573,4.38581 1.06569,5.40931 3.61008,7.8201 9.46139,8.96459 3.44337,0.67351 3.22583,0.57945 3.13452,1.35538 -0.0711,0.60433 -0.51695,0.93031 -3.15361,2.30588 -4.12801,2.1536 -7.47738,3.35268 -14.06157,5.03406 -3.03938,0.77615 -5.59272,1.47776 -5.67409,1.55914 -0.14928,0.14928 0.14712,1.51888 0.88098,4.07082 0.32454,1.12853 0.5076,1.38905 0.976,1.38903 0.8218,-6e-5 6.90961,-1.87015 11.20685,-3.44261 4.439,-1.62432 12.99861,-5.81557 17.75805,-8.69531 5.81192,-3.51654 9.00818,-5.95559 16.19393,-12.3575 7.40685,-6.59889 10.82053,-10.78515 17.13497,-21.01288 6.58291,-10.66261 8.855,-15.46326 12.85837,-27.16815 2.0269,-5.92618 2.90695,-10.69389 3.75163,-20.32456 1.17445,-13.39052 0.66172,-22.99558 -1.75838,-32.94063 -1.00978,-4.14951 -4.92583,-16.014574 -7.07336,-21.431251 -2.87396,-7.248933 -9.80974,-18.438514 -15.58002,-25.135418 -2.08954,-2.425091 -7.37139,-7.429156 -11.30708,-10.712418 -11.83299,-9.871402 -21.8144,-15.456957 -37.44903,-20.956324 -5.09813,-1.793228 -7.2374,-2.416284 -13.00022,-3.786279 -7.99097,-1.899694 -13.30683,-2.345853 -22.339048,-1.874909 -10.11133,0.527209 -15.35802,1.367805 -23.93027,3.833981 -13.06739,3.759397 -20.19675,6.894288 -29.99646,13.189911 -6.39609,4.109039 -10.91012,7.655366 -16.73094,13.144214 l -3.5798,3.375639 -7.32257,3.136845 C 8.3788419,61.973097 3.5358719,63.997829 1.6441019,64.747237 l -3.43958,1.362559 0.0907,10.699364 0.0907,10.699362 -1.45252,3.561514 c -2.40031,5.88546 -2.95052,8.011501 -4.86134,18.784484 l -1.80512,10.17703 0.0639,7.27604 c 0.12247,13.94945 0.73694,20.28341 2.73364,28.17813 1.69404,6.69805 4.02451,12.99968 7.00888,18.95213 3.01271,6.00897 11.9175601,20.13021 15.8067701,25.06626 2.61915,3.32414 9.54452,10.0581 12.89689,12.54043 4.66202,3.45211 13.57431,9.21643 17.92093,11.59097 2.14171,1.17001 6.09667,3.20105 8.7888,4.51344 12.62198,6.15308 15.37271,6.84267 33.07292,8.29111 2.25557,0.18458 5.99238,0.35122 8.30403,0.37032 l 4.202978,0.0347 z m 40.89379,-18.9094 c -1.77493,-0.44738 -4.06144,-1.78524 -5.41696,-3.16953 -3.25831,-3.32747 -3.92892,-7.29295 -2.03386,-12.02672 0.86233,-2.15407 1.97509,-3.43403 4.38466,-5.04351 1.06732,-0.71291 2.63829,-1.80707 3.49105,-2.43145 1.4941,-1.09398 2.28599,-1.40298 2.28599,-0.89203 0,0.13377 -0.19263,0.99515 -0.42807,1.91417 -0.60821,2.37406 -0.35031,4.33147 0.91844,6.97075 1.38286,2.87664 2.98096,4.58595 5.40947,5.7859 1.91413,0.9458 1.99571,0.96097 5.16625,0.96097 3.1903,0 3.22141,0.006 3.22141,0.61196 0,0.83239 -0.90967,1.6283 -4.59735,4.02243 -4.64609,3.01635 -5.56267,3.37969 -8.75607,3.47099 -1.45963,0.0417 -3.09986,-0.0365 -3.64496,-0.17393 z m 5.3369,-1.31118 c 1.18476,-0.33979 6.24645,-3.26732 7.42815,-4.29623 0.50932,-0.44347 0.80698,-0.7449 0.66146,-0.66985 -1.14431,0.59014 -7.22117,-1.63471 -8.62453,-3.1576 -2.57039,-2.78934 -4.21334,-6.23972 -4.41427,-9.27049 l -0.12666,-1.91036 -1.94116,1.34192 c -2.2366,1.54616 -3.9498,3.30355 -4.49685,4.61282 -0.84931,2.03269 -1.21531,4.36405 -0.89484,5.69992 0.28451,1.186 1.66625,3.20888 3.65854,5.35613 1.65236,1.7809 6.29494,2.99789 8.75016,2.29374 z m 9.8789,-9.65527 c -3.75843,-0.8426 -7.20347,-3.68473 -8.96659,-7.39737 -0.7945,-1.67299 -0.96893,-2.36187 -1.05983,-4.18563 -0.14571,-2.92336 0.39424,-4.48275 1.9644,-5.67325 1.55749,-1.18089 2.8955,-1.48718 5.87585,-1.34508 2.82876,0.13486 3.9985,0.5452 6.61022,2.31878 1.93418,1.31348 2.4355,2.06794 3.16122,4.75749 0.61539,2.28069 0.74582,6.55838 0.25398,8.32994 -0.74098,2.66895 -4.09272,4.03505 -7.83925,3.19512 z m 3.64944,-1.49502 c 2.25763,-0.74317 2.82132,-1.32336 3.18533,-3.27859 0.65816,-3.53512 -0.34682,-7.11241 -2.61512,-9.3087 -1.57302,-1.52308 -2.49373,-1.90543 -6.29944,-2.61604 -2.29,-0.4276 -2.46739,-0.42648 -3.64427,0.023 -1.86802,0.7134 -2.7054,1.82715 -2.92657,3.89243 -0.14248,1.33037 -0.0802,1.95988 0.28418,2.87376 0.62712,1.57274 2.04476,4.05851 3.00862,5.27548 0.85166,1.07531 4.48187,3.13767 6.08208,3.45529 0.50932,0.1011 0.99222,0.1975 1.07311,0.21424 0.0809,0.0167 0.91432,-0.22214 1.85208,-0.53084 z m 8.78449,-4.26738 c -0.45252,-0.48678 -0.52755,-0.8196 -0.41156,-1.82569 0.11958,-1.03733 -0.5511,-5.39114 -1.14548,-7.43603 -0.0796,-0.27404 0.0357,-0.52982 0.28158,-0.62416 0.44433,-0.1705 3.58779,2.23423 4.79317,3.66674 0.81055,0.96329 0.74329,1.22208 -0.9605,3.69531 -0.71627,1.03975 -1.30231,2.16691 -1.30231,2.5048 0,0.77862 -0.54116,0.78683 -1.2549,0.019 z m 2.57782,-5.1492 c 0,-0.1304 -0.41672,-0.641 -0.92604,-1.13465 -1.0121,-0.98096 -1.03653,-0.95103 -0.64794,0.79375 0.43367,1.94715 0.4664,1.98606 1.04844,1.24612 0.28904,-0.36747 0.52554,-0.77482 0.52554,-0.90522 z m 3.04271,-3.95813 c -3.13286,-2.12327 -11.24479,-9.17535 -11.24479,-9.77562 0,-0.29042 2.87402,-0.63007 5.33158,-0.63007 0.70565,0 1.283,-0.0817 1.283,-0.18168 0,-0.0999 -0.52894,-1.32031 -1.17542,-2.71197 -1.4107,-3.0368 -1.68501,-3.98551 -1.15239,-3.98551 0.47312,0 2.1798,0.67697 8.8101,3.49463 2.91042,1.23683 5.6307,2.33091 6.04507,2.4313 0.6613,0.1602 0.73191,0.27005 0.57765,0.8986 -0.43046,1.75391 -6.25029,10.95723 -7.02104,11.10287 -0.21748,0.0411 -0.87168,-0.24805 -1.45376,-0.64255 z m 2.95639,-3.75665 c 2.17297,-3.22869 3.60009,-5.80947 3.44132,-6.22323 -0.0986,-0.25685 -8.30946,-4.00845 -11.08994,-5.06705 -0.34917,-0.13293 -0.17518,0.42425 0.7276,2.33003 0.65258,1.3776 1.1865,2.74396 1.1865,3.03636 0,0.64708 -0.86689,0.86235 -3.47265,0.86235 -1.00046,0 -1.81901,0.10833 -1.81901,0.24073 0,0.52254 8.6435,7.50554 9.10137,7.35291 0.15646,-0.0522 1.02263,-1.1916 1.92481,-2.5321 z m -18.42317,-2.03945 c -0.60873,-0.26407 -1.82563,-0.40102 -3.63802,-0.40943 -1.49783,-0.007 -2.72288,-0.0916 -2.72234,-0.18817 0.002,-0.39743 1.09555,-1.9259 2.20827,-3.0872 0.86598,-0.90379 1.2957,-1.17899 1.58646,-1.01601 1.25402,0.70288 4.93553,4.12869 4.93553,4.59272 0,0.64987 -1.01429,0.69614 -2.3699,0.10809 z m -2.3926,-2.62521 c -0.18115,-0.21828 -0.42112,-0.39688 -0.53325,-0.39688 -0.11214,0 -0.27241,0.1786 -0.35618,0.39688 -0.11122,0.28985 0.0326,0.39687 0.53326,0.39687 0.57938,0 0.63454,-0.0615 0.35617,-0.39687 z m 1.65365,-4.81693 c -0.68184,-0.13133 -0.75633,-0.4086 -0.22766,-0.84736 0.20221,-0.16782 1.06025,-1.40279 1.90677,-2.74438 1.51234,-2.39682 2.17208,-3.16371 2.5309,-2.94195 0.26364,0.16294 3.39676,6.09909 3.39676,6.43566 0,0.27899 -6.24911,0.35952 -7.60677,0.098 z m 5.4901,-1.03784 c 0,-0.0914 -0.37075,-0.81425 -0.8239,-1.60627 l -0.8239,-1.44002 -0.89589,1.48721 c -0.49274,0.81798 -0.89589,1.54079 -0.89589,1.60626 0,0.0655 0.77391,0.11905 1.71979,0.11905 0.94589,0 1.71979,-0.0748 1.71979,-0.16623 z m 16.93334,-1.39631 c -3.35913,-1.13223 -15.77574,-5.77295 -16.40417,-6.13108 -1.19593,-0.68152 -1.19442,-0.66663 -0.21754,-2.14064 0.51415,-0.77579 1.13337,-1.73796 1.37603,-2.13814 0.24266,-0.40018 0.62768,-0.7276 0.85559,-0.7276 0.49017,0 14.99039,7.32547 17.76352,8.97409 2.03221,1.20814 2.39808,1.88534 1.50246,2.78097 -0.62432,0.62431 -1.53272,0.50925 -4.87589,-0.6176 z m 3.55864,-0.53306 c -0.13824,-0.13394 -3.10885,-1.7016 -6.60135,-3.48369 -3.4925,-1.78209 -7.35689,-3.81555 -8.58754,-4.5188 l -2.23754,-1.27863 -0.6508,1.32276 c -0.35794,0.72752 -0.6012,1.3706 -0.54058,1.42906 0.10351,0.0998 3.92461,1.5375 10.29667,3.87411 1.52797,0.56029 3.90922,1.43577 5.29166,1.9455 2.54953,0.94005 3.49615,1.16181 3.02948,0.70969 z m 0.67469,-5.99342 c -2.30547,-1.24224 -3.9702,-2.37792 -3.96688,-2.70622 0.001,-0.10173 0.86063,-0.39216 1.91024,-0.6454 2.46284,-0.5942 4.22854,-1.46991 5.98248,-2.96705 0.77497,-0.6615 1.51837,-1.20273 1.65201,-1.20273 0.47207,0 0.21443,1.23131 -1.02419,4.89479 -1.01245,2.99455 -1.35317,3.71703 -1.77853,3.77128 -0.2894,0.0369 -1.5382,-0.47818 -2.77513,-1.14467 z m 2.97774,-2.29588 c 0.35352,-0.90951 0.62857,-1.67675 0.61121,-1.70499 -0.0174,-0.0282 -0.84632,0.35871 -1.84212,0.8599 -0.99579,0.50118 -2.00456,0.91685 -2.2417,0.92372 -0.37837,0.011 2.20293,1.53038 2.65454,1.56253 0.0964,0.007 0.46454,-0.73165 0.81807,-1.64116 z M 1.3964519,165.51892 c -0.5562,-0.5562 -1.20746,-2.88039 -1.20746,-4.30915 0,-1.56739 0.89687,-3.42449 1.75825,-3.64068 0.93691,-0.23515 2.48843,0.0722 3.25556,0.64498 0.77831,0.58109 2.64909,3.90251 2.655,4.71373 0.005,0.73922 -0.34924,1.0057 -2.53393,1.90405 -2.48385,1.02136 -3.42796,1.18653 -3.92742,0.68707 z m 3.49853,-2.11099 1.3987,-0.62572 -0.70028,-1.39929 c -1.32028,-2.63814 -2.4646,-3.25118 -3.53312,-1.89277 -0.60692,0.77157 -0.69842,1.93013 -0.26049,3.29827 0.15834,0.49466 0.33635,1.05642 0.39558,1.24835 0.12563,0.40715 0.6643,0.28167 2.69961,-0.62884 z m 7.0747501,-2.48514 c -0.64663,-1.25044 -1.1893,-3.96417 -1.19308,-5.96624 -0.005,-2.41594 0.52832,-3.50579 2.10226,-4.29948 3.13005,-1.57839 6.20997,0.23193 7.91454,4.65201 0.97844,2.53718 1.00351,2.84157 0.26651,3.236 -1.16531,0.62366 -7.75423,3.15835 -8.21011,3.15835 -0.26204,0 -0.65809,-0.35129 -0.88012,-0.78064 z m 4.80456,-2.19593 c 1.64319,-0.61846 2.98902,-1.23884 2.99074,-1.37862 0.0105,-0.85386 -1.3387,-3.58005 -2.2459,-4.53805 -1.27925,-1.35089 -2.05785,-1.58888 -3.38455,-1.03455 -2.08137,0.86965 -2.67842,3.70512 -1.39244,6.61295 0.35579,0.80451 0.73636,1.46275 0.84571,1.46275 0.10935,0 1.54324,-0.50601 3.18644,-1.12448 z m 159.230318,2.17496 c -0.90727,-0.20851 -3.68429,-1.4215 -4.55061,-1.98768 -0.56867,-0.37167 -0.57263,-0.41181 -0.17474,-1.77206 0.5709,-1.95172 1.33944,-3.64074 1.65661,-3.64074 0.14757,0 0.58747,0.56555 0.97754,1.25677 1.29819,2.30042 2.83694,4.95401 3.2034,5.5243 0.44476,0.69216 0.0824,0.89395 -1.1122,0.61941 z m -2.42913,-3.02352 c -0.4176,-0.87572 -0.87816,-1.02916 -0.87816,-0.29257 0,0.26936 0.88275,1.11046 1.25249,1.1934 0.034,0.008 -0.13442,-0.39774 -0.37433,-0.90083 z m 9.68477,0.6247 c -2.34069,-0.66797 -6.34623,-4.5638 -7.86285,-7.64749 -0.66655,-1.35527 -0.7157,-1.69142 -0.7157,-4.89479 0,-3.21357 0.45832,-7.04843 0.93447,-7.81886 0.15737,-0.25462 0.5209,-0.13715 1.48894,0.48112 1.9888,1.2702 2.49856,1.30954 4.4595,0.34418 1.35622,-0.66767 2.25652,-1.43198 4.42149,-3.75366 1.49518,-1.6034 3.41669,-3.38333 4.27001,-3.95539 1.35136,-0.90592 1.74519,-1.0401 3.0528,-1.0401 1.91595,0 3.64424,0.83416 4.38548,2.11667 0.47383,0.81983 0.53078,1.35089 0.49651,4.6302 -0.0616,5.89245 -0.91761,11.87317 -2.00525,14.00974 -0.98005,1.92523 -3.09233,4.86344 -3.98679,5.54567 -2.31303,1.76424 -6.47174,2.68669 -8.93861,1.98271 z m 6.2969,-2.10759 c 1.68802,-0.85629 1.9044,-1.07529 3.68594,-3.73053 2.06154,-3.07257 2.52073,-4.29071 3.14814,-8.35125 0.68173,-4.41215 0.79418,-8.69402 0.27521,-10.4792 -0.38517,-1.32493 -0.57205,-1.58978 -1.35163,-1.91551 -2.36458,-0.98799 -4.28831,-0.0921 -7.13771,3.32418 -4.33338,5.19546 -7.37736,6.78323 -10.50169,5.47781 l -0.9454,-0.39502 -0.2838,1.89137 c -0.80047,5.33477 -0.64413,6.7553 1.02544,9.31786 0.91207,1.39991 1.83965,2.33096 4.7993,4.81728 1.646,1.38275 4.61064,1.40025 7.2862,0.043 z M -2.7244881,154.68392 c -0.46207,-1.21535 -1.18928,-6.97546 -0.91484,-7.24637 0.14104,-0.13923 2.75676,-0.56188 5.8127,-0.93922 3.05593,-0.37734 6.00273,-0.75719 6.54843,-0.8441 1.4204701,-0.22623 1.3085101,0.40514 -0.31452,1.77369 -1.48335,1.25079 -1.86829,2.10314 -1.86829,4.13683 0,1.69519 -0.34178,1.93968 -1.62118,1.15968 -0.4908,-0.29921 -1.14966,-0.54447 -1.46413,-0.54501 -1.10099,-0.002 -3.594,1.16102 -4.63683,2.16297 -0.57876,0.55607 -1.10505,1.01104 -1.16954,1.01104 -0.0645,0 -0.23179,-0.30128 -0.3718,-0.66951 z m 6.51451,-4.08854 1.08748,-0.004 0.52664,-1.60627 0.52665,-1.60626 -0.5558,0.1328 c -0.30568,0.073 -2.1929,0.2814 -4.19381,0.46303 -2.00091,0.18162 -3.63802,0.4061 -3.63802,0.49883 0,0.27606 0.54495,3.28333 0.6543,3.61069 0.0664,0.19878 0.85452,-0.003 2.30301,-0.59087 1.24442,-0.50468 2.67499,-0.89499 3.28955,-0.8975 z m 13.6534901,-3.83389 c -0.43008,-0.36188 -1.33312,-0.89423 -2.00678,-1.18299 -1.73432,-0.74342 -1.59988,-1.22299 0.40149,-1.43217 3.01787,-0.31543 2.8716,-0.38684 2.8716,1.4019 0,0.86453 -0.10898,1.63924 -0.24218,1.72156 -0.1332,0.0823 -0.59406,-0.14641 -1.02413,-0.5083 z m -22.3719901,-8.27525 c -0.35662,-6.99242 0.0254,-18.85055 0.62761,-19.4833 0.38091,-0.4002 1.64329,0.64202 4.29589,3.54667 3.90372,4.27466 16.2693101,15.87048 16.9240201,15.87048 0.37623,0 0.20737,1.00015 -0.19492,1.15453 -0.74336,0.28525 -19.1545501,2.28268 -21.0583601,2.28462 -0.35549,2.7e-4 -0.44937,-0.5325 -0.59424,-3.373 z m 10.40698,0.98309 c 4.43957,-0.44156 8.1898101,-0.83803 8.3338501,-0.88105 0.14405,-0.043 -1.16564,-1.42711 -2.91042,-3.07578 -1.7447701,-1.64866 -5.6274901,-5.47295 -8.6282701,-8.49842 l -5.45595,-5.50085 -0.16373,1.19453 c -0.33998,2.48039 -0.49986,9.38383 -0.31028,13.39723 0.17015,3.60215 0.25555,4.16719 0.62985,4.16719 0.23815,0 4.06538,-0.36128 8.50495,-0.80285 z m 6.0875701,-10.77411 c -4.9437701,-5.02958 -14.5562201,-15.89326 -14.9342301,-16.87818 -0.30292,-0.78926 0.0525,-3.05049 1.26646,-8.05737 1.07924,-4.451234 1.20091,-4.4962 3.57971,-1.32291 3.13837,4.18653 5.32782,6.88325 10.1306401,12.47776 l 4.78895,5.57835 0.11338,6.31778 c 0.0913,5.08601 0.0459,6.31857 -0.23295,6.32188 -0.19048,0.002 -2.31086,-1.99453 -4.71196,-4.43731 z m 3.48684,-2.75986 c -0.0623,-3.1363 -0.19039,-4.4871 -0.47846,-5.04417 -0.21639,-0.41844 -2.00907,-2.56898 -3.98374,-4.77897 C 7.2465919,112.36957 1.8868119,105.85131 0.4558119,103.78673 l -0.6231,-0.89898 -0.23681,0.6344 c -0.31003,0.83053 -1.78816,6.87225 -1.78816,7.30892 0,0.18579 0.98306,1.43894 2.18457,2.78477 1.20151,1.34583 2.77728,3.16133 3.50172,4.03446 2.98353,3.59586 5.39419,6.25813 8.4331601,9.31334 1.76592,1.77536 3.21076,3.23404 3.21076,3.2415 0,0.007 -0.0383,-1.91393 -0.085,-4.26978 z m -0.53409,-14.56892 c -1.01874,-1.34606 -3.23938,-4.2161 -4.9347401,-6.37786 -3.40105,-4.33666 -7.32824,-9.830599 -8.08507,-11.31062 -0.48576,-0.94991 -0.33058,-1.560283 0.39654,-1.559751 0.43348,2.65e-4 17.4445701,10.492871 17.7203101,10.930001 0.16511,0.26176 -0.0721,1.58799 -0.72545,4.05593 -0.53394,2.01684 -1.09909,4.3516 -1.25591,5.18835 -0.40955,2.18536 -0.86285,2.05063 -3.11568,-0.92605 z m 2.76978,-3.99154 c 0.53317,-1.84882 0.92223,-3.40783 0.86458,-3.46446 -0.31495,-0.30938 -10.1578301,-6.500768 -10.3347101,-6.500768 -0.11598,0 -0.86803,-0.420378 -1.67122,-0.934172 -0.80319,-0.513795 -1.46034,-0.819947 -1.46034,-0.680337 0,0.332402 3.30011,4.772517 7.0012001,9.419717 1.62253,2.03729 3.28746,4.15389 3.69986,4.70356 0.4124,0.54966 0.79063,0.95857 0.84052,0.90868 0.0499,-0.0499 0.52694,-1.60339 1.06011,-3.45222 z m -0.69544,-12.875126 c -3.1287,-2.030211 -6.9504401,-4.497978 -8.4927701,-5.483926 l -2.80422,-1.792634 -0.17146,-4.101042 c -0.29063,-6.951472 -0.21819,-13.128197 0.15751,-13.430438 0.1819,-0.146336 1.58089,-0.710954 3.10885,-1.254708 1.52797,-0.543753 5.1950501,-1.93748 8.1490801,-3.097175 4.69051,-1.841408 5.43184,-2.06365 5.85163,-1.754251 0.26438,0.194852 3.35237,2.656845 6.86219,5.471089 5.55568,4.45466 6.41512,5.242155 6.6414,6.085416 0.24179,0.901087 0.80133,10.505187 0.80465,13.811293 l 0.002,1.465604 -1.52136,0.880245 c -3.0846,1.784734 -12.51083,6.903979 -12.70149,6.897997 -0.10844,-0.0034 -2.7569,-1.667261 -5.8856,-3.69747 z m 10.05416,-0.269647 c 2.11006,-1.159939 4.89096,-2.675234 6.17979,-3.367321 l 2.34333,-1.258342 -0.16476,-4.497917 c -0.0906,-2.473854 -0.23954,-5.712542 -0.33095,-7.197082 l -0.16619,-2.699163 -2.27696,-1.839053 c -1.25233,-1.011478 -3.00909,-2.377374 -3.90391,-3.035321 -0.89482,-0.65795 -2.75843,-2.153063 -4.14135,-3.322476 l -2.5144,-2.126205 -3.53157,1.462103 c -1.94236,0.804159 -4.66266,1.86282 -6.04511,2.352583 -1.38245,0.489762 -3.2279201,1.174752 -4.1010401,1.522198 l -1.5875,0.631722 0.0871,7.640643 c 0.0771,6.768124 0.13755,7.678108 0.52917,7.968723 0.55483,0.411745 9.0804001,5.927794 12.6129301,8.160579 1.45521,0.919784 2.7649,1.681554 2.91042,1.69282 0.14552,0.01127 1.99099,-0.928555 4.10104,-2.088491 z m -10.58333,-7.959051 c -1.23693,-0.885029 -2.34557,-1.77949 -2.46364,-1.98769 -0.13866,-0.244496 0.0918,-0.915321 0.65079,-1.894359 1.28362,-2.248162 6.1851,-9.681096 6.62438,-10.045668 0.30639,-0.254278 0.71165,-0.09168 2.08389,0.836094 0.93695,0.633468 2.16951,1.559412 2.73903,2.057651 l 1.03549,0.905891 -3.33542,5.038754 c -3.27524,4.947849 -4.56307,6.705122 -4.91064,6.700695 -0.0962,-0.0013 -1.18695,-0.726339 -2.42388,-1.611368 z m 5.52889,-4.981988 c 1.7613,-2.608927 3.20095,-4.841348 3.19923,-4.960938 -0.005,-0.363667 -2.90732,-2.258414 -3.25483,-2.125061 -0.17851,0.0685 -1.46564,1.835427 -2.86027,3.926504 -2.54056,3.809225 -3.40677,5.27195 -3.40677,5.752796 0,0.192214 2.79849,2.1502 3.07322,2.1502 0.0259,0 1.48813,-2.134577 3.24942,-4.743501 z m 16.37273,-11.726812 c -1.68608,-1.346068 -3.24955,-2.753226 -3.47439,-3.127016 -0.37431,-0.6223 -0.36775,-0.747093 0.0778,-1.479693 1.07745,-1.771729 4.19328,-3.771664 6.19856,-3.978627 1.88321,-0.194365 3.36909,0.58491 4.136,2.169142 0.64389,1.330105 0.73198,4.52896 0.15542,5.643912 -0.52576,1.016712 -2.94479,3.219677 -3.53546,3.219677 -0.27077,0 -1.87183,-1.101328 -3.5579,-2.447395 z m 4.31641,0.04885 c 0.95996,-0.683546 2.09239,-2.581228 2.09239,-3.50633 0,-1.041752 -0.78325,-2.802139 -1.39162,-3.127727 -1.98814,-1.064025 -3.37655,-0.648912 -5.70063,1.704401 l -1.40092,1.418548 2.71601,2.028782 c 1.49381,1.11583 2.76132,2.028783 2.81668,2.028783 0.0554,0 0.44601,-0.245906 0.86809,-0.546457 z m 6.74663,-6.383311 c 0.084,-1.354617 0.19855,-2.611769 0.2545,-2.79367 0.14988,-0.487259 1.22156,-0.403876 2.95269,0.229741 2.45084,0.897043 2.49526,1.046435 0.72431,2.436392 -0.84019,0.659437 -2.10287,1.512064 -2.80594,1.894726 l -1.27832,0.695748 z m 2.48951,-0.87544 c 0.27518,-0.331576 0.23698,-0.396875 -0.23219,-0.396875 -0.32278,0 -0.56156,0.168756 -0.56156,0.396875 0,0.218281 0.10448,0.396875 0.23218,0.396875 0.1277,0 0.38041,-0.178594 0.56157,-0.396875 z m -24.0433,-0.938906 c -3.11144,-2.749125 -3.15234,-2.83096 -2.07797,-4.157893 2.59034,-3.1993 5.64503,-4.468358 8.03066,-3.336301 1.94084,0.920988 2.48186,2.783446 1.41566,4.873384 -0.70017,1.372444 -3.89466,4.750346 -4.49241,4.750346 -0.25616,0 -1.55034,-0.958292 -2.87594,-2.129536 z m 6.5808,-4.294043 c 0,-0.740388 -1.53585,-2.307672 -2.26138,-2.307672 -1.48914,0 -3.77728,1.358461 -4.86785,2.89002 l -0.52467,0.736828 1.90872,1.646126 1.90872,1.646124 1.91823,-2.024367 c 1.14534,-1.20872 1.91823,-2.251085 1.91823,-2.587059 z m 22.48958,1.566368 c -2.17731,-0.494363 -3.09773,-1.080645 -5.42396,-3.454874 -3.04617,-3.109026 -6.39585,-8.809857 -6.67166,-11.354516 -0.11632,-1.073111 -0.0847,-1.125634 1.15937,-1.926253 2.01576,-1.297223 8.14993,-4.574803 9.36306,-5.002821 0.6052,-0.213528 1.21014,-0.320391 1.3443,-0.237474 0.34153,0.211076 2.45362,4.46756 3.43573,6.924021 1.62769,4.071149 2.1248,6.113527 2.27562,9.349376 0.1503,3.224702 -0.0884,4.597609 -0.92836,5.339869 -0.64771,0.57236 -2.85604,0.748226 -4.5541,0.362672 z m 2.75991,-1.563288 c 0.68048,-0.386625 1.11969,-0.865412 1.27025,-1.38471 0.29336,-1.011851 0.0285,-4.696219 -0.4799,-6.676956 -0.37892,-1.47609 -4.12984,-9.627989 -4.76065,-10.346328 -0.37346,-0.425291 -0.46897,-0.38163 -5.86722,2.68225 -2.33352,1.324439 -3.76911,2.296925 -3.76715,2.551932 0.002,0.22661 0.38869,1.083823 0.85989,1.904917 0.47121,0.821095 1.45206,2.547501 2.17966,3.836458 2.00844,3.557977 5.61614,7.039047 8.06808,7.784891 1.05797,0.321821 1.39368,0.274437 2.49704,-0.352454 z m -21.1573,-1.727308 c -0.58177,-2.614981 -1.47369,-3.603379 -3.50356,-3.882557 -2.26268,-0.311198 -1.80572,-1.053013 2.3702,-3.847721 2.81994,-1.887224 3.37633,-2.092191 3.8577,-1.421133 1.50243,2.094458 5.88347,9.596091 5.88347,10.074235 0,0.536689 -0.0871,0.577742 -0.8599,0.405347 -1.5007,-0.334772 -4.51567,-0.207476 -5.93119,0.250423 l -1.36712,0.442246 z m 4.30833,-0.514417 c 0.9095,-0.07781 1.65364,-0.195712 1.65364,-0.262001 0,-0.252034 -4.10918,-6.930403 -4.27037,-6.940339 -0.0931,-0.0057 -0.923,0.544384 -1.84416,1.222498 -1.50426,1.107376 -1.62432,1.262308 -1.17889,1.521354 1.37388,0.799018 2.21017,1.792967 2.52136,2.996711 0.52046,2.013222 0.50804,1.991071 1.00398,1.790038 0.25343,-0.10273 1.20493,-0.250447 2.11444,-0.328261 z m 26.29829,-0.532048 c -0.27583,-0.545703 -1.16283,-2.778125 -1.97111,-4.960937 -0.80828,-2.182813 -2.31142,-6.135254 -3.34032,-8.783202 -1.02889,-2.647949 -1.87072,-5.10269 -1.87072,-5.454981 0,-0.560528 0.27917,-0.745892 2.23515,-1.484127 1.22932,-0.463979 3.04503,-1.076489 4.03489,-1.361134 2.75496,-0.792213 10.10404,-2.323307 11.58934,-2.4145 l 1.32291,-0.08122 -0.0751,0.926041 c -0.0741,0.913891 -0.49555,1.899298 -5.94104,13.890626 -1.51992,3.346979 -3.10226,6.978385 -3.5163,8.069792 -0.41404,1.091406 -0.86422,2.133203 -1.0004,2.315104 -0.43906,0.586486 -0.95381,0.354441 -1.46732,-0.661459 z m 4.37595,-9.855729 c 1.09485,-2.401094 2.87124,-6.193547 3.94752,-8.427674 1.07628,-2.234127 1.95688,-4.157563 1.95688,-4.274302 0,-0.75417 -13.90482,2.662505 -15.25506,3.748454 -0.39604,0.31852 -0.0913,1.452243 1.23308,4.587897 0.55317,1.309687 1.44798,3.571875 1.98846,5.027083 0.54049,1.455209 1.40556,3.576114 1.92239,4.713124 l 0.93969,2.06729 0.63819,-1.538123 c 0.35101,-0.845969 1.53399,-3.502655 2.62885,-5.903749 z m 2.73022,7.209896 c 5.3e-4,-0.400182 0.42399,-1.561042 0.94121,-2.579687 0.51722,-1.018646 1.48581,-3.10224 2.15241,-4.630209 1.79199,-4.107551 7.24289,-14.849899 7.90306,-15.574945 0.455,-0.499714 12.49656,-1.234146 12.94256,-0.789385 0.214418,0.213833 -0.74422,2.12359 -2.613,5.205482 -1.43791,2.371332 -5.97601,10.508116 -8.07872,14.48512 l -1.12916,2.135646 -2.90934,0.463876 c -1.60013,0.25513 -4.14961,0.812136 -5.6655,1.237789 -3.42289,0.961131 -3.54455,0.962721 -3.54352,0.04631 z m 7.71213,-2.696112 c 1.59196,-0.290782 3.01166,-0.601118 3.15488,-0.689631 0.14322,-0.08851 0.86761,-1.372111 1.60976,-2.852439 0.74216,-1.480328 1.67511,-3.167756 2.07322,-3.749839 0.39811,-0.582083 1.05276,-1.713177 1.45478,-2.513542 0.40201,-0.800364 1.40983,-2.526771 2.2396,-3.836458 0.82976,-1.309688 2.00547,-3.260791 2.61269,-4.335784 l 1.10403,-1.954534 -2.58043,0.18078 c -3.27099,0.22916 -7.21868,0.893991 -7.71775,1.299746 -0.3858,0.313664 -7.70628,15.083876 -8.08818,16.319167 -0.11247,0.363802 -0.48673,1.223047 -0.83169,1.909435 -0.34496,0.686384 -0.62719,1.294021 -0.62719,1.350303 0,0.05628 0.6079,-0.05536 1.3509,-0.248089 0.74299,-0.19273 2.65341,-0.588333 4.24538,-0.879115 z M 102.71503,229.96372 c 3.03508,-0.29027 9.16348,-1.26895 9.39271,-1.49999 0.22946,-0.23127 0.0464,-3.65537 -0.39723,-7.42807 -0.41601,-3.53818 -1.04956,-5.88635 -1.58715,-5.88254 -0.14552,0.001 -0.85989,0.19977 -1.5875,0.44165 -1.03355,0.34359 -2.30677,0.43683 -5.82083,0.42628 -4.630418,-0.0139 -8.893948,-0.52928 -13.890628,-1.67909 -9.94579,-2.28867 -11.16618,-2.78515 -16.91143,-6.87994 -4.07252,-2.90258 -4.44615,-3.11341 -7.78739,-4.39422 -2.82115,-1.08145 -5.56338,-2.53087 -10.04727,-5.31053 -6.29058,-3.89968 -8.57785,-5.618 -13.76214,-10.33884 -7.19406,-6.55095 -12.80491,-13.75502 -16.67938,-21.41552 -0.3864,-0.76399 -0.79239,-1.38907 -0.90219,-1.38907 -0.1098,0 -4.02973,1.643 -8.71094,3.6511 l -8.5113101,3.65109 0.86645,2.1036 c 1.54953,3.76201 1.61276,3.86614 7.7730901,12.80134 4.33786,6.29181 8.41464,11.24199 13.81835,16.77874 4.86806,4.98791 5.94599,5.75052 15.45646,10.93513 1.15225,0.62814 2.28335,1.30466 2.51354,1.50337 0.75112,0.64838 5.03935,3.0713 8.5435,4.82724 4.70871,2.35953 13.60554,5.98399 17.06185,6.95078 2.78534,0.77911 10.78812,2.27156 13.44236,2.50689 2.16949,0.19235 14.59105,-0.0595 17.727078,-0.3594 z m 24.07708,-4.75545 c 0.43657,-0.14051 2.36291,-0.67076 4.28077,-1.17835 3.17961,-0.84153 10.13902,-3.65921 10.13902,-4.10502 0,-0.0965 -1.15837,-0.58538 -2.57416,-1.08646 -5.07961,-1.79778 -7.52948,-4.94552 -8.25632,-10.60819 -0.14959,-1.16536 -0.11941,-2.38635 0.0893,-3.61532 l 0.31521,-1.85568 -1.20318,0.60985 c -1.11704,0.56619 -3.18237,2.76199 -5.72245,6.08394 -1.67227,2.18701 -3.11603,6.42317 -3.38418,9.92955 -0.13718,1.7938 0.20706,5.3767 0.62126,6.46611 l 0.24026,0.63194 2.33034,-0.50845 c 1.28169,-0.27966 2.68753,-0.62342 3.12409,-0.76392 z m -18.60127,-11.2144 c 2.0517,-0.65754 2.27848,-0.87933 3.49386,-3.41699 1.02743,-2.14523 2.19114,-6.18558 2.91248,-10.11199 0.65459,-3.56311 0.9216,-8.85795 0.69555,-13.79302 -0.27033,-5.90191 -0.59178,-7.76576 -2.29413,-13.30199 -1.53345,-4.98696 -3.33763,-8.66647 -4.52888,-9.2364 -0.47295,-0.22627 -0.8599,-0.50599 -0.8599,-0.6216 0,-0.57727 -3.76532,-1.94965 -6.28543,-2.29091 -1.501378,-0.20331 -1.620188,-0.18516 -1.27839,0.1953 0.56033,0.62372 2.1524,4.2322 3.45362,7.82778 2.88114,7.96123 3.89695,17.3935 3.03322,28.1648 -0.40941,5.10571 -1.18522,7.8384 -3.60933,12.71333 -1.1216,2.25557 -2.08942,4.20732 -2.1507,4.33722 -0.17498,0.37092 6.0215,-0.018 7.41803,-0.46553 z m -20.729618,-2.21805 c 0.71576,-0.60529 3.32066,-5.51659 4.16152,-7.84617 0.36269,-1.0048 1.04087,-3.62417 1.50708,-5.82083 0.80334,-3.78513 0.84712,-4.28442 0.83723,-9.55018 -0.008,-4.17091 -0.12973,-6.21594 -0.48892,-8.20209 -1.20067,-6.6392 -3.21354,-11.37325 -5.98991,-14.08768 -1.31359,-1.28427 -1.67997,-1.30473 -3.38017,-0.18879 -2.15992,1.41768 -5.33781,3.86306 -5.33781,4.10742 0,0.11475 0.71608,1.67582 1.5913,3.46905 2.58142,5.28908 3.6882,11.17954 3.34686,17.8125 -0.32831,6.37985 -1.42606,10.56737 -4.00144,15.26412 -0.80624,1.47033 -1.46589,2.75007 -1.46589,2.84385 0,0.26894 4.45089,1.84819 6.35,2.25309 2.25889,0.48161 2.23594,0.48204 2.87015,-0.0543 z m -18.00797,-9.44703 c 0.98619,-1.25373 2.423,-4.53406 3.07627,-7.02328 1.18775,-4.52581 1.31907,-8.55537 0.41089,-12.60784 -0.27903,-1.24508 -1.75331,-4.30206 -2.56929,-5.32751 l -0.48152,-0.60514 -2.28456,1.07058 -2.28456,1.07058 0.26612,0.96383 c 0.14637,0.5301 0.22577,2.10659 0.17645,3.50331 -0.0829,2.34662 -0.17366,2.71425 -1.19535,4.84078 -0.74197,1.54433 -1.58829,2.79958 -2.57294,3.81617 l -1.46728,1.51489 1.49197,2.07215 c 1.96942,2.73528 6.08807,7.36112 6.55404,7.36112 0.20282,0 0.59871,-0.29234 0.87976,-0.64964 z m -7.64969,-4.44359 c -0.3292,-0.47294 -1.24447,-1.69334 -2.03393,-2.71198 -2.31179,-2.9829 -5.35808,-9.6508 -6.44483,-14.10685 l -0.58639,-2.40436 -1.40041,-0.17497 c -2.3724,-0.29641 -4.99885,-0.0368 -5.83066,0.57633 -1.60214,1.18096 -3.8352,6.1521 -3.25257,7.24076 0.78812,1.47262 9.98285,7.48846 15.58519,10.19693 1.98004,0.95726 3.77866,1.84677 3.99695,1.97669 0.60969,0.3629 0.60776,0.32849 -0.0333,-0.59255 z m -18.43365,-18.82201 c 1.02253,-1.28153 2.68781,-2.01306 4.59376,-2.01798 2.44135,-0.006 2.57156,-0.32458 0.54163,-1.32392 -1.54619,-0.76118 -1.9313,-0.84572 -3.29088,-0.72244 -1.5147,0.13735 -2.99334,0.74398 -4.26232,1.74868 -0.63707,0.5044 -0.63888,0.51837 -0.16342,1.26577 0.56513,0.88839 1.49661,1.94638 1.71362,1.94637 0.0838,-10e-6 0.4742,-0.40342 0.86761,-0.89648 z m 19.91288,-3.2707 c 0.98214,-3.08593 1.4648,-5.90008 2.04494,-11.9228 0.58254,-6.04766 0.58459,-6.19233 0.10473,-7.40833 -1.13948,-2.88753 -0.65275,-4.8278 1.65205,-6.58573 0.9253,-0.70576 1.38518,-0.8722 2.40977,-0.8722 2.46466,0 3.97382,0.47565 6.60368,2.08132 3.22195,1.96718 3.44436,2.08309 10.72194,5.58781 7.05398,3.39705 7.31236,3.43914 8.51492,1.38712 0.44866,-0.76556 0.62122,-1.31903 0.47188,-1.5135 -2.96053,-3.85542 -4.34141,-7.363 -4.53888,-11.52933 -0.12521,-2.64173 -0.0908,-2.89483 0.60331,-4.4416 0.77141,-1.71891 2.06498,-3.09184 3.17583,-3.37064 l 0.65661,-0.1648 -0.0116,-3.74163 c -0.006,-2.0579 -0.13774,-4.6346 -0.29188,-5.726 -0.48351,-3.42343 -0.44729,-4.08834 0.22793,-4.18436 0.46855,-0.0666 0.69832,0.15587 1.14728,1.11101 0.30877,0.65688 0.72973,1.33402 0.93547,1.50477 0.30827,0.25584 0.37407,0.17047 0.37407,-0.48531 0,-0.43767 -0.19808,-1.40908 -0.44018,-2.15868 -0.31083,-0.96245 -0.35753,-1.44556 -0.15892,-1.64417 0.47747,-0.47747 1.36075,0.021 1.85069,1.04444 l 0.46714,0.97584 0.19589,-1.95925 c 0.107738,-1.07759 0.262508,-2.02587 0.343948,-2.10731 0.366,-0.366 1.13951,0.59358 2.23934,2.77804 0.65485,1.30063 1.61975,3.07513 2.14422,3.94332 2.10261,3.48056 4.45954,8.32186 5.148,10.57436 0.4003,1.30969 0.75268,2.41477 0.78308,2.45573 0.0304,0.041 0.93456,-0.39888 2.00925,-0.97743 3.34894,-1.80287 8.93721,-3.76949 13.59567,-4.78459 1.9165,-0.41761 2.24939,-0.5882 3.52013,-1.8039 l 1.40346,-1.34267 -0.44025,-0.85137 c -0.53033,-1.02554 -0.78275,-3.4352 -0.53378,-5.09549 0.10907,-0.72728 0.55756,-1.75727 1.12327,-2.57968 0.83982,-1.22088 0.92428,-1.49633 0.78047,-2.54549 -0.189,-1.37893 -1.70898,-4.39365 -2.90125,-5.75432 -1.31162,-1.49689 -2.33417,-1.52661 -4.98208,-0.1448 l -2.14884,1.12136 -2.93765,-0.0965 c -2.78793,-0.0916 -2.99834,-0.13879 -4.12828,-0.92526 -1.45432,-1.01224 -2.09361,-1.71804 -2.95843,-3.26617 -0.88779,-1.58925 -1.3572,-4.01348 -1.23722,-6.3895 0.0816,-1.6157 0.28207,-2.32884 1.17924,-4.194721 1.34346,-2.794027 2.06356,-3.656397 3.85442,-4.615898 0.77602,-0.415774 1.44555,-0.782238 1.48785,-0.814366 0.0423,-0.03213 -0.15648,-0.46037 -0.44171,-0.951653 -1.56657,-2.698234 -1.95313,-9.949138 -0.66467,-12.467588 0.24229,-0.473588 0.78576,-1.300432 1.20772,-1.837428 l 0.76719,-0.97636 -0.46424,-2.255354 -0.46424,-2.255353 1.08223,-3.208859 1.08224,-3.208859 -0.82613,-0.505192 c -1.71991,-1.051764 -4.85133,-2.163954 -7.16124,-2.543472 -2.32874,-0.382609 -5.55154,-0.354946 -10.49,0.09005 l -1.743868,0.157136 0.61939,0.619389 c 0.730878,0.730885 0.810978,1.849827 0.156368,2.184366 -0.254658,0.130146 -0.874298,0.314817 -1.376968,0.410382 -1.8942,0.360114 -5.83293,-2.539614 -5.83293,-4.294246 0,-1.147159 0.61747,-1.48922 2.75258,-1.52486 1.0327,-0.01722 2.88966,-0.301159 4.12659,-0.630933 2.062458,-0.54987 2.621958,-0.586682 6.746868,-0.443902 5.06548,0.175339 8.28112,0.618699 13.09688,1.805752 l 3.30729,0.815224 1.78422,-0.614903 1.78423,-0.614902 -2.57798,-1.005726 c -5.84852,-2.281681 -11.45416,-3.520651 -20.17276,-4.458662 -4.527618,-0.487114 -6.298428,-0.557536 -10.715618,-0.426146 -6.53823,0.194484 -12.74095,0.907716 -16.93334,1.947119 -2.609,0.646837 -10.0673,3.720693 -13.8891,5.724237 -5.44872,2.856439 -7.18469,4.022222 -12.48636,8.385183 -1.32623,1.091406 -2.86324,2.341562 -3.41557,2.778125 -1.41148,1.115613 -1.64167,1.815931 -1.45117,4.414991 0.43968,5.999009 0.6971,15.039999 0.44182,15.517006 -0.14862,0.277704 -1.25652,1.014706 -2.462,1.637787 -2.51435,1.299601 -9.32361,5.247726 -10.91104,6.326406 -0.58868,0.40002 -2.14189,1.30398 -3.45157,2.00881 -1.30969,0.70483 -2.46064,1.39928 -2.55767,1.54324 -0.097,0.14395 -0.48285,1.36635 -0.85739,2.71644 -1.42404,5.1332 -2.26747,12.54613 -2.27094,19.95926 -0.002,4.79027 0.091,6.00788 0.78035,10.18646 1.06772,6.47241 1.92066,10.25264 2.75937,12.22947 0.38801,0.91453 1.00734,2.61838 1.3763,3.78633 0.68321,2.16275 5.2606,11.06017 7.69567,14.95867 0.73914,1.18335 1.91546,2.86583 2.61406,3.73886 l 1.27016,1.58732 1.20963,-0.73947 c 1.53919,-0.94094 4.00414,-1.65446 5.71552,-1.65446 1.4716,0 3.15041,0.64199 4.99181,1.9089 0.64953,0.44689 1.2331,0.81253 1.29681,0.81253 0.0637,0 0.056,-1.35669 -0.0172,-3.01485 -0.16103,-3.64895 -0.0105,-4.46098 0.80518,-4.34452 0.47159,0.0673 0.61613,0.31183 0.7531,1.27395 0.45901,3.22406 2.23807,5.22786 6.0244,6.78541 2.40381,0.98884 2.75615,0.89368 3.32651,-0.89843 z m 3.13132,0.82165 c 0.46571,-0.23931 1.53136,-0.89859 2.36811,-1.46506 1.35351,-0.91633 1.52135,-1.12953 1.52135,-1.93259 0,-3.06946 1.40059,-11.01105 2.15878,-12.24067 0.44332,-0.71898 0.68927,-0.85936 1.50082,-0.85666 1.14859,0.004 4.21457,1.29608 7.1294,3.00494 1.14939,0.67384 2.22607,1.22516 2.39262,1.22516 0.16654,0 1.04905,-0.45657 1.96112,-1.01461 0.91206,-0.55803 2.46264,-1.43409 3.44573,-1.9468 l 1.78743,-0.93219 -6.54993,-3.3475 c -3.60246,-1.84112 -7.75749,-3.99098 -9.23339,-4.77747 -3.2045,-1.70763 -5.00633,-2.07047 -6.57804,-1.32464 -1.70267,0.80797 -2.55598,2.97976 -1.52027,3.86928 1.07884,0.92655 2.4474,0.73399 2.4474,-0.34436 0,-0.69408 0.79092,-0.57397 1.0602,0.161 0.36692,1.00143 -0.14797,1.6554 -1.68477,2.13983 l -1.44894,0.45674 -0.16661,2.53817 c -0.50793,7.73768 -1.30967,13.97854 -2.15304,16.75953 -0.18073,0.59593 0.43521,0.60693 1.56203,0.0279 z m 90.914638,-5.92937 0.79245,-1.46969 -1.2142,-0.32475 c -0.66781,-0.17861 -1.23792,-0.29115 -1.26692,-0.2501 -0.029,0.0411 -0.24324,1.26528 -0.47611,2.72049 -0.23286,1.45521 -0.50498,2.88396 -0.60471,3.175 -0.27441,0.80082 1.86621,-2.17568 2.76949,-3.85095 z m -80.113988,-1.63275 c 1.25454,-0.91303 2.83646,-2.07298 3.51537,-2.57768 l 1.2344,-0.91763 -0.60496,-0.465 c -0.33273,-0.25576 -2.05253,-1.21064 -3.82178,-2.12196 -3.1346,-1.6146 -3.23036,-1.6447 -3.7466,-1.1775 -0.85352,0.77242 -1.86204,6.19171 -1.89329,10.17364 l -0.007,0.86975 1.52135,-1.06179 c 0.83675,-0.58398 2.5478,-1.80881 3.80234,-2.72183 z m 53.150428,0.65505 c 8e-4,-0.69122 0.0776,-2.58271 0.171,-4.2033 l 0.1698,-2.94654 -1.56006,-0.436 c -2.3952,-0.66939 -3.52897,-1.23179 -5.26078,-2.60958 -1.5377,-1.22337 -3.57486,-3.43317 -4.14217,-4.4932 -0.47225,-0.88241 -0.33994,-2.64361 0.30292,-4.03226 0.33643,-0.72672 0.65632,-1.97615 0.71086,-2.77651 0.14382,-2.11024 0.73593,-3.67342 1.90418,-5.02709 0.98714,-1.14381 1.08402,-1.19011 2.46397,-1.17756 1.65691,0.0151 1.97924,0.20775 5.5929,3.34343 1.30973,1.13649 2.41059,2.03683 2.44635,2.00076 0.0358,-0.0361 0.53099,-1.13715 1.10051,-2.44684 0.56953,-1.30968 1.53221,-3.25511 2.13929,-4.32316 0.60708,-1.06806 1.10378,-2.00853 1.10378,-2.08994 0,-0.2164 -6.95166,0.15535 -11.24968,0.60161 -5.85677,0.60811 -14.3129,2.38224 -14.89763,3.1256 -0.1434,0.18231 -0.13431,1.7319 0.0226,3.85877 0.25888,3.5081 -0.0417,11.73447 -0.46716,12.7839 -0.16858,0.41582 0.0107,0.46343 1.75883,0.46707 2.10865,0.004 3.05164,0.32059 2.34341,0.7858 -0.40228,0.26425 -0.95323,0.37782 -3.27327,0.67474 -0.90446,0.11576 -1.4766,0.3675 -1.91823,0.84403 -0.34613,0.37348 -0.62933,0.76879 -0.62933,0.87845 0,0.10967 0.92273,0.40077 2.05052,0.64691 6.18525,1.34989 6.80105,1.5556 10.78177,3.60165 2.18281,1.12194 4.80219,2.51549 5.82083,3.09678 1.01865,0.58129 2.00091,1.06867 2.18281,1.08307 0.22169,0.0175 0.33113,-0.38818 0.33194,-1.23059 z m -5.55745,0.18294 c -0.21829,-0.14959 -1.46844,-0.81744 -2.77813,-1.48411 -2.52791,-1.28679 -2.54022,-1.26661 -0.5516,0.9043 0.70883,0.77379 0.93483,0.85949 2.25715,0.85584 1.08815,-0.003 1.36647,-0.0746 1.07258,-0.27603 z m 37.35453,-1.96888 c 0.24698,-0.89666 -0.19139,-20.20207 -0.57375,-25.2677 -0.33635,-4.45607 -1.17708,-6.88967 -3.12752,-9.053 -1.0984,-1.21828 -2.68071,-2.04501 -3.93065,-2.05369 -0.62337,-0.004 -1.24749,0.33738 -2.44739,1.34 -1.92606,1.60937 -2.10818,1.21067 -0.43263,-0.94711 1.00568,-1.29512 1.15327,-1.63844 1.0089,-2.34694 -0.093,-0.45644 -0.59334,-3.3066 -1.11186,-6.33369 -0.53697,-3.1348 -1.05664,-5.46943 -1.20734,-5.42395 -0.30681,0.0926 -0.26854,0.74921 0.3032,5.20266 0.52991,4.12763 0.40585,5.55586 -0.60788,6.99822 -0.9544,1.35795 -2.21553,2.09969 -5.07428,2.98446 l -2.20395,0.68212 -0.76154,1.69733 c -0.45923,1.02354 -0.92349,1.69734 -1.16949,1.69734 -0.22436,0 -0.40794,0.16014 -0.40794,0.35586 0,0.19573 -0.24915,0.58135 -0.55367,0.85694 -0.30452,0.27559 -0.67111,0.7205 -0.81464,0.9887 -0.24278,0.45362 -0.16265,0.47631 1.14898,0.32537 1.67869,-0.19319 2.45855,0.14004 3.32025,1.41871 0.8185,1.21457 0.75898,2.31145 -0.19373,3.57049 l -0.78226,1.03379 0.53974,0.87331 c 0.76233,1.23347 0.76013,4.44584 -0.004,6.02459 -0.29913,0.61791 -0.54387,1.26107 -0.54387,1.42925 0,0.6367 4.45174,2.47991 7.486,3.09953 1.63077,0.33301 3.06805,0.50901 3.19394,0.39109 0.12711,-0.11905 0.009,-0.78325 -0.26458,-1.49361 -0.42098,-1.09129 -0.49348,-2.03723 -0.49348,-6.43861 0,-4.6457 0.21672,-7.41209 0.55424,-7.07458 0.0678,0.0678 0.23135,2.66956 0.36348,5.78173 0.32077,7.55543 0.6733,8.82047 3.38176,12.13507 1.02502,1.25442 1.45495,2.38695 0.90614,2.38695 -0.12009,0 -0.92376,-0.54801 -1.78594,-1.2178 -2.40989,-1.87212 -3.49492,-2.41615 -5.9698,-2.99322 -3.43093,-0.79999 -7.72583,-2.61926 -9.27044,-3.92686 -0.40855,-0.34586 -0.37263,-0.46824 0.45609,-1.55392 0.49477,-0.64818 1.07832,-1.78042 1.29679,-2.51609 0.3564,-1.20012 0.3547,-1.41983 -0.0166,-2.13781 -0.22759,-0.44012 -0.81994,-1.20636 -1.31633,-1.70275 -0.49639,-0.49639 -0.90253,-1.0152 -0.90253,-1.15291 0,-0.13771 0.47147,-0.49091 1.0477,-0.78488 0.81917,-0.41791 1.11779,-0.76844 1.36903,-1.607 1.28011,-4.27264 -4.32744,-3.46211 -6.48139,0.93684 -1.34678,2.75048 -1.183,3.84229 0.87113,5.80746 0.44675,0.42741 0.81228,0.8682 0.81228,0.97953 0,0.3586 -2.3803,-0.50084 -3.84398,-1.38793 -0.78142,-0.47359 -2.82581,-1.97171 -4.54308,-3.32915 -3.29162,-2.60191 -3.97698,-2.95033 -5.05067,-2.56766 -1.20357,0.42895 -1.75686,1.52002 -1.86591,3.6795 -0.0814,1.61139 0.004,2.17427 0.48003,3.15718 0.68549,1.41604 2.75805,3.15397 5.4309,4.55405 2.39049,1.25217 2.92854,1.94259 1.51389,1.94259 -1.42922,0 -4.51925,-1.76118 -6.55733,-3.73741 -1.06225,-1.03 -2.05406,-1.7969 -2.20403,-1.70421 -0.14996,0.0927 -0.34701,0.56486 -0.43789,1.04928 -0.22048,1.17526 0.83672,3.26015 2.48182,4.89435 1.4242,1.41477 4.95979,3.27828 7.32021,3.85828 1.57461,0.38691 6.39219,0.98915 10.71562,1.33956 3.19794,0.25918 5.39546,0.88411 10.48251,2.98101 2.45655,1.0126 4.82041,1.92336 5.25302,2.02391 0.7826,0.1819 0.78406,0.18005 0.28825,-0.36781 -1.10944,-1.22591 0.56572,-0.7747 2.76164,0.74386 1.41915,0.9814 1.87273,0.96032 2.16495,-0.10062 z m -29.21687,-4.58544 c -0.63394,-0.10875 -0.6215,-0.12564 -0.81096,1.10084 l -0.15654,1.01331 0.73884,-1.01331 c 0.68723,-0.94253 0.70321,-1.01943 0.22866,-1.10084 z m -24.54282,-2.42416 c 0.24415,-0.4562 -0.004,-0.85203 -1.84278,-2.9351 -1.16874,-1.32428 -2.12498,-2.57945 -2.12498,-2.78928 0,-0.52781 0.54424,-0.19901 2.64583,1.59845 0.94589,0.809 1.8035,1.47256 1.9058,1.47458 0.51434,0.0101 0.81632,-2.48444 0.93355,-7.71186 0.19038,-8.48856 0.34221,-8.16808 -8.62801,-18.21084 l -4.133208,-4.62741 -0.0882,1.45241 c -0.0485,0.79882 -0.007,2.90992 0.0927,4.69134 l 0.18086,3.23893 1.47657,0.9944 c 2.043638,1.3763 2.429948,2.00561 2.820118,4.59415 0.20847,1.38307 0.57411,2.62039 0.9691,3.27942 0.5366,0.89531 0.63431,1.40475 0.63431,3.30729 0,1.89576 -0.0969,2.40485 -0.61717,3.24159 -0.65874,1.05951 -1.31012,1.35076 -2.708798,1.2112 -0.87242,-0.0871 -0.8751,-0.0837 -2.11825,2.69096 l -1.24473,2.77812 2.68414,0.2996 c 2.350458,0.26236 7.721468,1.47679 8.069188,1.82451 0.28835,0.28835 0.83116,0.0887 1.094,-0.40246 z m 56.19815,-3.9706 c 0.35893,-0.94589 1.08795,-3.14855 1.62005,-4.8948 0.5321,-1.74625 1.38074,-4.40643 1.88586,-5.91151 1.53779,-4.58208 2.0904,-9.24866 2.00822,-16.95873 -0.0912,-8.55901 -0.49479,-11.72292 -2.16194,-16.94955 -0.71947,-2.25557 -1.74369,-5.52538 -2.27606,-7.26623 -0.53237,-1.74085 -1.48625,-4.18163 -2.11972,-5.423955 l -1.15179,-2.258774 -0.0134,1.270685 c -0.0222,2.111334 -0.77589,4.843514 -1.71201,6.206604 -1.10191,1.60449 -2.8051,2.90856 -4.0625,3.1105 -1.92645,0.3094 -2.17757,0.40963 -3.13699,1.252 -1.22477,1.07537 -1.68523,2.17329 -1.68523,4.01828 0,1.64683 1.05092,9.36592 1.88476,13.84368 0.52425,2.81526 0.59307,2.98742 1.2532,3.13538 2.09205,0.46891 2.69668,0.70018 3.66566,1.40211 1.31252,0.95078 1.93913,1.81516 2.79914,3.86131 1.26136,3.00101 1.47011,4.88053 1.67071,15.04259 0.20418,10.34332 0.15722,10.14345 1.53202,6.52041 z m -67.435778,-2.66527 c 0.11604,-0.36562 0.0226,-0.65941 -0.28026,-0.88084 -0.37062,-0.27101 -0.39856,-0.43652 -0.1516,-0.89797 0.28204,-0.52701 0.44466,-0.55478 2.37623,-0.40583 l 2.073458,0.1599 0.30311,-0.86948 c 0.44669,-1.2814 0.38468,-3.99588 -0.10735,-4.69835 -0.75695,-1.0807 -1.32468,-1.20491 -3.297518,-0.72144 -0.99368,0.24351 -1.9979,0.40245 -2.2316,0.3532 -0.89442,-0.1885 0.3491,-1.21401 2.36259,-1.94837 1.913568,-0.69791 1.989478,-0.75808 1.989478,-1.57672 0,-1.51219 -0.510808,-2.45556 -1.787508,-3.30121 -2.14247,-1.41911 -3.86611,-0.83847 -5.06175,1.70513 -1.33632,2.84291 -0.1807,8.87459 2.38473,12.44688 0.95289,1.32689 1.17681,1.42648 1.42799,0.6351 z m 10.847988,-18.83323 c -1.67193,-3.6401 -6.19676,-11.83901 -6.53375,-11.83901 -0.12065,0 -0.21871,0.2679 -0.21789,0.59532 0.003,1.2301 0.62887,2.78804 2.09911,5.22552 0.83386,1.38245 2.26739,3.82323 3.18562,5.42396 2.32621,4.0552 2.76664,4.70454 2.86934,4.23028 0.0472,-0.21781 -0.58392,-1.85404 -1.40243,-3.63607 z m 17.53858,2.84857 c 8.17843,-0.76238 8.71126,-0.83813 9.50882,-1.35179 0.79024,-0.50894 0.77182,-1.32787 -0.0344,-1.53022 -0.65229,-0.16371 -7.59787,0.90661 -13.42798,2.06928 -3.29707,0.65751 -4.72772,1.06063 -4.72772,1.33215 0,0.24178 1.4394,0.15566 8.68128,-0.51942 z m 13.94226,-1.45841 c 0.79866,0 0.88316,-0.0858 1.15755,-1.17549 0.43852,-1.74153 0.4433,-1.73492 -1.25482,-1.73492 -1.49468,0 -1.54641,0.023 -1.42931,0.63556 0.0792,0.41411 -0.0719,0.82897 -0.43357,1.19062 -0.8638,0.86381 -0.73606,1.45116 0.27176,1.2496 0.45476,-0.091 1.21453,-0.16537 1.68839,-0.16537 z m -5.49177,-2.82822 c -0.25466,-0.0665 -0.67138,-0.0665 -0.92604,0 -0.25466,0.0665 -0.0463,0.12101 0.46302,0.12101 0.50932,0 0.71768,-0.0545 0.46302,-0.12101 z m -31.92499,-4.33915 c -1.32259,-1.92748 -2.404698,-3.30599 -2.404698,-3.06336 0,0.24263 0.11906,0.44115 0.26458,0.44115 0.145518,0 0.264588,0.47755 0.264588,1.06123 0,0.96148 0.19025,1.26037 2.02387,3.1796 1.11313,1.1651 2.07618,2.06606 2.14012,2.00213 0.0639,-0.0639 -0.96588,-1.69327 -2.28846,-3.62075 z m 31.18972,2.74991 c 0.12254,-0.1074 -0.52745,-0.60327 -0.78608,-0.59969 -0.0728,0.001 -0.42995,0.23302 -0.79375,0.51557 l -0.66146,0.51374 1.05833,-0.16019 c 0.58208,-0.0881 1.11442,-0.20935 1.18296,-0.26943 z m 9.87731,-0.50639 c 1.04737,-0.23426 2.69015,-0.83495 3.65062,-1.33486 1.51304,-0.78752 1.82825,-1.08389 2.35976,-2.21869 l 0.61346,-1.30976 -0.47875,-3.81548 c -0.61902,-4.93345 -0.47194,-7.95809 0.53326,-10.96619 0.40646,-1.21634 1.01304,-2.61533 1.34796,-3.10885 0.33491,-0.49353 0.475,-0.89732 0.31131,-0.89732 -0.16368,0 -0.0817,-0.23863 0.18229,-0.53028 0.49054,-0.54205 1.19817,-0.78069 3.93679,-1.32765 1.29515,-0.25866 1.7479,-0.50774 2.69585,-1.48311 2.07691,-2.13698 2.9676,-6.140863 2.14083,-9.623545 -0.46136,-1.94342 -2.28939,-5.490945 -3.48591,-6.764848 -1.51721,-1.615334 -3.74647,-1.824209 -6.08232,-0.569899 -1.23409,0.662678 -1.71544,1.105942 -2.16216,1.991079 -0.76494,1.515661 -1.1131,1.904085 -1.7067,1.904085 -1.20818,0 0.0398,-2.792825 2.09925,-4.698016 l 1.50502,-1.392259 -0.0364,-2.715969 c -0.0726,-5.413116 -2.17375,-11.111714 -5.83238,-15.818189 -1.19952,-1.543076 -3.61736,-3.261865 -3.02101,-2.147573 0.65064,1.215721 0.0118,2.393178 -0.89155,1.643412 -0.21005,-0.174331 -0.49028,-0.249989 -0.62273,-0.168132 -0.40045,0.247494 -1.0488,-0.687266 -1.88768,-2.721583 -1.41348,-3.427723 -4.74717,-8.987449 -6.75905,-11.272317 -0.88003,-0.999442 -0.65844,-0.561417 1.11193,2.198039 1.74037,2.712694 2.69036,4.60452 3.64601,7.260815 0.40575,1.127787 0.84084,2.050521 0.96687,2.050521 0.32761,0 0.2844,2.315864 -0.047,2.520704 -0.40428,0.24986 -1.04611,-0.380333 -1.0508,-1.031745 -0.003,-0.416748 -0.0631,-0.469686 -0.23155,-0.203875 -0.29367,0.463476 -1.3519,0.148648 -1.3519,-0.402196 0,-0.2224 0.20595,-0.753012 0.45767,-1.179136 0.35208,-0.596025 0.38995,-0.880126 0.16413,-1.231448 -0.4339,-0.675045 -3.69861,-0.572326 -6.06972,0.190971 -3.17362,1.021638 -5.23887,2.273827 -6.72615,4.078155 -2.15313,2.612123 -2.95145,4.484122 -3.0873,7.239463 -0.14101,2.859832 0.0156,3.166349 1.38653,2.713898 0.66411,-0.219176 1.79011,-0.280699 3.32152,-0.181483 1.62474,0.105262 2.39446,0.05654 2.57674,-0.163089 0.14296,-0.172252 1.05664,-0.721826 2.03041,-1.221272 1.4944,-0.766474 2.1161,-0.926224 3.98669,-1.024406 1.99688,-0.104809 2.3592,-0.04635 3.66121,0.590656 1.58305,0.774518 3.32686,2.633459 4.01476,4.279845 0.58442,1.398717 0.88657,5.116867 0.62591,7.702447 -0.15287,1.516467 -0.50846,2.870882 -1.18059,4.496818 -1.39908,3.384461 -1.38412,3.158062 -0.22295,3.375735 0.55785,0.104571 1.43099,0.373988 1.94031,0.598704 l 0.92604,0.408572 -0.89841,0.203094 c -1.11787,0.252704 -2.86833,-2.01e-4 -7.43596,-1.074335 -2.79051,-0.656219 -3.96308,-0.813054 -5.36018,-0.716931 -6.34704,0.436687 -10.34427,7.143633 -7.50006,12.584353 0.62399,1.19364 2.65467,3.09892 3.99382,3.74719 0.93456,0.45242 1.63356,0.53056 4.74578,0.53056 3.44978,0 3.81717,-0.0523 6.70419,-0.9535 3.05403,-0.95338 7.38225,-3.0952 9.45499,-4.67881 0.58208,-0.44472 2.08356,-1.87695 3.33662,-3.18275 1.46592,-1.5276 2.39341,-2.303023 2.60113,-2.174645 0.48491,0.299685 0.12651,1.330085 -1.08126,3.108605 -0.588,0.86587 -1.35155,2.19128 -1.69679,2.94538 -0.84947,1.85548 -1.86959,6.30377 -2.24122,9.77288 -0.27927,2.60704 -0.25629,3.09355 0.26678,5.64757 0.31481,1.53713 0.50729,2.85987 0.42774,2.93942 -0.0795,0.0795 -1.12986,-0.0509 -2.33402,-0.28996 -4.05914,-0.80574 -5.95822,-0.42417 -9.55632,1.92009 -2.64531,1.72348 -3.07151,1.4894 -3.08225,-1.69282 l -0.005,-1.5875 -0.52568,0.79375 c -0.39923,0.60282 -0.5261,1.2427 -0.52742,2.66018 -0.002,1.60352 0.10554,2.03561 0.75991,3.06744 0.7855,1.2386 2.03722,2.17463 3.70511,2.77065 1.33246,0.47615 4.72183,0.44674 6.99038,-0.0607 z m 11.79002,-30.43195 c -0.19839,-0.23374 -0.71789,-1.15516 -1.15446,-2.047611 -0.57222,-1.169782 -1.16295,-1.898579 -2.11666,-2.611393 -1.46264,-1.09319 -1.66281,-1.617782 -0.66146,-1.733534 1.08318,-0.125209 3.03878,1.312693 3.95266,2.906276 1.11756,1.948781 1.1011,4.807202 -0.0201,3.486262 z m 27.50575,30.05352 c 0.3897,-0.29008 1.12526,-1.12473 1.63458,-1.85477 2.7534,-3.9466 4.51725,-5.51695 7.25111,-6.45566 2.29061,-0.78651 3.19526,-0.7608 4.96302,0.14105 0.54668,0.27889 1.07222,0.50708 1.16788,0.50708 0.52367,0 -1.84336,-14.54804 -2.60745,-16.02562 -0.22148,-0.42831 -0.78198,-2.08769 -1.24555,-3.6875 -1.95837,-6.758545 -5.64066,-15.749582 -8.3076,-20.284627 -3.23398,-5.499291 -7.55531,-12.162682 -9.12371,-14.068553 -0.81972,-0.996098 -2.04769,-2.528078 -2.72881,-3.404402 -3.56337,-4.584594 -10.26921,-10.907522 -15.96424,-15.05267 -2.03469,-1.480952 -4.0313,-2.969617 -4.4369,-3.308143 -1.87865,-1.567962 -10.33603,-6.526954 -14.87295,-8.720775 -6.25512,-3.024646 -14.38426,-6.111717 -17.36524,-6.594515 -0.63558,-0.102938 -3.86038,-0.770613 -7.16622,-1.483722 -3.30584,-0.71311 -6.34194,-1.295703 -6.74688,-1.294651 -0.64304,0.0017 -0.96276,0.351014 -2.52548,2.759464 -0.98408,1.516655 -2.48017,3.986341 -3.32465,5.488193 -3.331658,5.925141 -5.178138,9.100685 -5.539648,9.526989 -0.69687,0.821759 -0.13595,1.00886 3.02453,1.00886 1.680458,0 4.917878,0.243969 7.194278,0.542157 11.68906,1.53116 15.53516,2.574793 24.71682,6.706862 l 1.52792,0.687621 -0.38756,-0.74947 c -0.45423,-0.878374 -1.95431,-2.760601 -3.8302,-4.80592 -1.03086,-1.123972 -1.38997,-1.372386 -1.57767,-1.091351 -0.1361,0.203774 -0.73654,0.376796 -1.36478,0.393269 -0.98384,0.0258 -1.22701,-0.09233 -1.97775,-0.960814 -0.9589,-1.109281 -1.98768,-3.920541 -1.98768,-5.431539 0,-1.316675 0.61805,-2.169982 1.57171,-2.169982 0.80395,0 2.00526,1.136193 3.35031,3.168685 0.39214,0.592563 1.27587,1.490589 1.96386,1.995615 2.96808,2.178776 7.49791,7.524193 9.69653,11.442397 0.88666,1.580121 1.15286,1.808049 5.68557,4.868104 13.3647,9.022564 23.68837,22.324497 28.39409,36.585452 0.77115,2.337016 1.94429,5.654956 2.60698,7.373186 2.09141,5.42266 2.5439,7.32201 2.82238,11.84713 0.13805,2.24334 0.25411,5.22075 0.25791,6.61645 0.009,3.17452 0.49008,4.88332 1.65385,5.87004 0.72163,0.61184 1.03577,0.71039 1.87785,0.58913 0.55619,-0.0801 1.3301,-0.38296 1.71979,-0.67305 z m -45.42851,-7.72192 c 2.31768,-1.04444 2.63738,-1.11838 4.86205,-1.12448 1.30969,-0.004 2.79797,0.053 3.30729,0.12576 l 0.92605,0.1323 -0.0945,-3.3073 c -0.052,-1.81901 -0.11673,-3.33236 -0.14392,-3.36301 -0.0272,-0.0306 -1.16438,0.0596 -2.52711,0.20061 -1.36273,0.14099 -2.54103,0.193 -2.61846,0.11557 -0.30623,-0.30623 0.71203,-0.8828 2.49267,-1.41141 2.72899,-0.81015 2.89513,-1.07395 2.87337,-4.56256 -0.01,-1.58249 -0.0978,-2.95711 -0.19542,-3.05472 -0.0976,-0.0976 -1.59282,0.4921 -3.32268,1.31047 -1.72987,0.81836 -4.15929,1.7818 -5.39871,2.14098 -1.99194,0.57724 -3.08949,0.80827 -6.47356,1.36266 l -0.85623,0.14027 1.03729,2.03922 c 1.13817,2.23757 2.22348,5.34401 2.515,7.19859 0.29095,1.85097 0.67256,3.175 0.91509,3.175 0.12153,0 1.33733,-0.50308 2.70178,-1.11795 z m -14.39123,-11.45832 c 0.4756,-0.19872 0.86474,-0.45859 0.86474,-0.57747 0,-0.11889 -0.72683,-0.92864 -1.61518,-1.79944 -1.89413,-1.85672 -2.59844,-3.1103 -2.88539,-5.13559 -0.21947,-1.54906 0.21598,-4.916105 0.88806,-6.866828 0.34505,-1.001519 0.33588,-1.036177 -0.38697,-1.463177 -0.67921,-0.401214 -0.82334,-0.402865 -1.7439,-0.01998 -2.67107,1.111004 -3.6711,2.463091 -4.89265,6.615145 -0.52798,1.79462 -0.5481,2.0925 -0.22714,3.36349 0.48036,1.90219 1.96377,4.73047 2.7862,5.31221 1.33581,0.94486 2.56416,1.2405 4.50025,1.08311 1.01598,-0.0826 2.23637,-0.31275 2.71198,-0.51147 z m 0.19398,-17.85591 c 0.868,-0.576657 2.14793,-1.237705 2.84427,-1.468991 1.40989,-0.468291 1.49713,-0.685311 0.73691,-1.833205 -0.28912,-0.436563 -0.52647,-0.659366 -0.52742,-0.49512 -10e-4,0.164245 -0.35491,0.444915 -0.78656,0.62371 -1.15764,0.47951 -2.69071,0.05285 -3.13555,-0.872641 -0.48579,-1.010658 -0.67705,-2.398601 -0.45151,-3.276481 0.18957,-0.737897 0.19301,-0.735587 0.6276,0.421034 0.51854,1.380072 1.14644,1.880317 1.82604,1.454796 0.69054,-0.432372 0.72316,-1.828242 0.0687,-2.937553 -0.44579,-0.755552 -0.49059,-0.998482 -0.21625,-1.172472 0.19032,-0.120705 0.43533,-0.221287 0.54447,-0.223514 0.10914,-0.0021 0.2047,-0.450536 0.21236,-0.996239 0.008,-0.545703 0.17747,-1.885156 0.37736,-2.976562 0.32724,-1.786623 0.32081,-2.017334 -0.0645,-2.315105 -0.92544,-0.715229 -4.19054,-0.211838 -5.31291,0.819111 -1.90514,1.749973 -2.73634,5.345679 -2.17732,9.418929 0.45284,3.299624 2.29631,6.912811 3.51339,6.886252 0.18852,-0.0041 1.05294,-0.47929 1.92095,-1.055949 z m 14.62869,-2.177717 c 2.44756,-4.362762 3.02412,-9.69119 1.39432,-12.885862 -0.72567,-1.422427 -3.18383,-3.616952 -4.48972,-4.008208 -0.88116,-0.264004 -1.44073,-0.269798 -2.59872,-0.0269 -4.37818,0.918331 -6.24383,5.077579 -4.97127,11.082843 0.54376,2.566016 1.47719,5.473692 1.83041,5.701789 0.16555,0.106913 0.77726,0.204799 1.35934,0.217528 0.58209,0.01273 2.1299,0.29895 3.43959,0.636045 1.30968,0.337097 2.57824,0.626163 2.81901,0.642368 0.2684,0.01807 0.73926,-0.507947 1.21704,-1.359598 z m -2.63749,-3.847669 c -1.07971,-0.132689 -1.96428,-1.364189 -2.17157,-3.023235 -0.0975,-0.780018 -0.0706,-1.70643 0.0597,-2.058694 0.21971,-0.593931 0.26971,-0.541774 0.68803,0.717688 0.74767,2.251006 1.76893,2.559227 2.63123,0.794117 0.59775,-1.223573 0.44374,-1.97789 -0.66065,-3.235721 -0.45383,-0.51688 -0.77569,-0.989233 -0.71524,-1.049674 0.0604,-0.06044 0.61716,0.01887 1.23717,0.176239 1.55974,0.395904 2.02453,1.310915 2.0199,3.976494 -0.005,2.891073 -0.90586,3.971037 -3.08861,3.702786 z m 19.06418,-4.831334 c -0.88299,-1.171811 -1.66417,-2.071831 -1.73595,-2.000046 -0.0718,0.07179 -0.0467,0.965186 0.0558,1.985332 l 0.18627,1.854814 1.36351,0.09629 c 0.74993,0.05296 1.44728,0.118314 1.54968,0.145233 0.10239,0.02692 -0.53628,-0.909813 -1.41926,-2.081623 z M 96.802852,64.617086 c -0.79814,-0.798145 -1.57397,-1.338665 -1.92144,-1.338665 -0.57596,0 -0.57688,0.0066 -0.0787,0.56283 0.60662,0.677386 3.07592,2.377429 3.22976,2.223593 0.06,-0.06 -0.49331,-0.711491 -1.22957,-1.447758 z m 24.530838,0.687237 c 0.22801,-0.274738 0.1573,-0.418047 -0.31172,-0.631746 -0.79293,-0.361283 -3.62802,-0.947727 -3.79147,-0.784275 -0.15363,0.153627 3.03009,1.771369 3.48606,1.771369 0.17722,0 0.45492,-0.159906 0.61713,-0.355348 z M 98.690752,63.542639 c 0.0762,-0.291242 0.0603,-0.488195 -0.0353,-0.437671 -0.0956,0.05052 -0.40856,0.176155 -0.69552,0.279181 -0.43715,0.156948 -0.4586,0.227258 -0.13229,0.43362 0.56842,0.359479 0.70885,0.314717 0.86309,-0.27513 z m 2.904828,-0.966935 c -0.17913,-0.07247 -0.53631,-0.07689 -0.79375,-0.0098 -0.25743,0.06708 -0.11086,0.126381 0.3257,0.131773 0.43656,0.0054 0.64718,-0.04949 0.46805,-0.12197 z m 1.98243,-0.272823 c -0.25297,-0.06622 -0.72922,-0.06862 -1.05833,-0.0053 -0.32912,0.06329 -0.12215,0.117469 0.45993,0.120406 0.58208,0.0029 0.85136,-0.04884 0.5984,-0.115067 z m 20.3368,-15.158421 c -0.23649,-0.591065 -0.42999,-1.406686 -0.42999,-1.81249 0,-0.818647 -0.63934,-1.875319 -0.94794,-1.566716 -0.2473,0.247296 0.57829,3.292671 1.11804,4.124144 0.5976,0.92059 0.75071,0.481727 0.25989,-0.744938 z"
       id="path826"
       inkscape:connector-curvature="0" />
  </g>
</svg>
